<svg xmlns="http://www.w3.org/2000/svg" width="20" height="15" viewBox="0 0 20 15" fill="none"><path d="M17.0073 1.2227C19.1531 4.37764 20.2128 7.93634 19.8166 12.0332C19.815 12.0505 19.8059 12.0665 19.7917 12.0769C18.1667 13.2701 16.5923 13.9942 15.04 14.4745C15.028 14.4781 15.015 14.4779 15.0031 14.4739C14.9911 14.4698 14.9807 14.4622 14.9733 14.4519C14.6147 13.9529 14.2888 13.4269 14.0034 12.8744C13.987 12.8419 14.0019 12.8027 14.0357 12.7899C14.5532 12.5949 15.0453 12.3612 15.5186 12.0845C15.5559 12.0627 15.5583 12.0092 15.5238 11.9836C15.4234 11.909 15.3239 11.8306 15.2286 11.7522C15.2108 11.7378 15.1868 11.7349 15.1666 11.7446C12.0936 13.1637 8.7273 13.1637 5.61796 11.7446C5.59777 11.7356 5.57378 11.7387 5.55645 11.753C5.46145 11.8313 5.3617 11.909 5.26218 11.9836C5.22775 12.0092 5.2306 12.0627 5.26812 12.0845C5.74146 12.356 6.23356 12.5949 6.75036 12.7908C6.78384 12.8037 6.79976 12.8419 6.78313 12.8744C6.50383 13.4276 6.17798 13.9536 5.81271 14.4526C5.7968 14.4728 5.77067 14.4821 5.74597 14.4745C4.20104 13.9942 2.62665 13.2701 1.00168 12.0769C0.988142 12.0665 0.978404 12.0498 0.976979 12.0325C0.645905 8.48876 1.32064 4.90062 3.78375 1.22199C3.78969 1.21225 3.79871 1.20465 3.80916 1.20014C5.02112 0.643912 6.31953 0.234701 7.67661 0.00100118C7.70131 -0.00279881 7.72601 0.00860117 7.73883 0.0304511C7.90651 0.327326 8.09817 0.708037 8.22784 1.01916C9.6583 0.800662 11.1111 0.800662 12.5715 1.01916C12.7011 0.714687 12.8862 0.327326 13.0531 0.0304511C13.0591 0.0196116 13.0683 0.0109276 13.0795 0.00563878C13.0906 0.000350007 13.1032 -0.0012731 13.1153 0.00100118C14.4731 0.235413 15.7715 0.644625 16.9826 1.20014C16.9932 1.20465 17.002 1.21225 17.0073 1.2227ZM8.95507 7.96056C8.97003 6.91295 8.20623 6.04608 7.24744 6.04608C6.2965 6.04608 5.54006 6.90535 5.54006 7.96056C5.54006 9.01553 6.31146 9.87481 7.24744 9.87481C8.19863 9.87481 8.95507 9.01553 8.95507 7.96056ZM15.2683 7.96056C15.2832 6.91295 14.5194 6.04608 13.5609 6.04608C12.6097 6.04608 11.8533 6.90535 11.8533 7.96056C11.8533 9.01553 12.6247 9.87481 13.5609 9.87481C14.5194 9.87481 15.2683 9.01553 15.2683 7.96056Z" fill="#2D5BFF"></path></svg>