<svg xmlns="http://www.w3.org/2000/svg" width="37" height="37" viewBox="0 0 37 37" fill="none"><rect x="0.898438" y="0.234375" width="36" height="36" rx="8" fill="#F2F1FA"></rect><path d="M26.0073 12.4571C28.1531 15.612 29.2128 19.1707 28.8166 23.2676C28.815 23.2849 28.8059 23.3008 28.7917 23.3113C27.1667 24.5045 25.5923 25.2286 24.04 25.7088C24.028 25.7125 24.015 25.7123 24.0031 25.7083C23.9911 25.7042 23.9807 25.6965 23.9733 25.6863C23.6147 25.1873 23.2888 24.6612 23.0034 24.1088C22.987 24.0763 23.0019 24.0371 23.0357 24.0243C23.5532 23.8293 24.0453 23.5956 24.5186 23.3189C24.5559 23.297 24.5583 23.2436 24.5238 23.2179C24.4234 23.1434 24.3239 23.065 24.2286 22.9866C24.2108 22.9721 24.1868 22.9693 24.1666 22.979C21.0936 24.3981 17.7273 24.3981 14.618 22.979C14.5978 22.97 14.5738 22.9731 14.5564 22.9873C14.4614 23.0657 14.3617 23.1434 14.2622 23.2179C14.2277 23.2436 14.2306 23.297 14.2681 23.3189C14.7415 23.5903 15.2336 23.8293 15.7504 24.0252C15.7838 24.038 15.7998 24.0763 15.7831 24.1088C15.5038 24.6619 15.178 25.188 14.8127 25.687C14.7968 25.7072 14.7707 25.7164 14.746 25.7088C13.201 25.2286 11.6267 24.5045 10.0017 23.3113C9.98814 23.3008 9.9784 23.2842 9.97698 23.2669C9.6459 19.7231 10.3206 16.135 12.7837 12.4564C12.7897 12.4466 12.7987 12.439 12.8092 12.4345C14.0211 11.8783 15.3195 11.4691 16.6766 11.2354C16.7013 11.2316 16.726 11.243 16.7388 11.2648C16.9065 11.5617 17.0982 11.9424 17.2278 12.2535C18.6583 12.035 20.1111 12.035 21.5715 12.2535C21.7011 11.9491 21.8862 11.5617 22.0531 11.2648C22.0591 11.254 22.0683 11.2453 22.0795 11.24C22.0906 11.2347 22.1032 11.2331 22.1153 11.2354C23.4731 11.4698 24.7715 11.879 25.9826 12.4345C25.9932 12.439 26.002 12.4466 26.0073 12.4571ZM17.9551 19.1949C17.97 18.1473 17.2062 17.2805 16.2474 17.2805C15.2965 17.2805 14.5401 18.1397 14.5401 19.1949C14.5401 20.2499 15.3115 21.1092 16.2474 21.1092C17.1986 21.1092 17.9551 20.2499 17.9551 19.1949ZM24.2683 19.1949C24.2832 18.1473 23.5194 17.2805 22.5609 17.2805C21.6097 17.2805 20.8533 18.1397 20.8533 19.1949C20.8533 20.2499 21.6247 21.1092 22.5609 21.1092C23.5194 21.1092 24.2683 20.2499 24.2683 19.1949Z" fill="#2D5BFF"></path></svg>