<svg xmlns="http://www.w3.org/2000/svg" width="109" height="108" viewBox="0 0 109 108" fill="none"><rect x="0.5" width="108" height="108" rx="54" fill="#F8F1FF"></rect><path d="M53.5037 82.7021C41.1676 79.0494 30.2029 69.1639 24.8904 56.9187C21.3786 48.8208 21.0387 41.1817 23.9305 35.4077C24.5267 34.216 26.8461 30.1581 31.6219 28.15C33.4345 27.3873 35.414 27 37.5008 27C42.9742 27 49.032 29.7112 54.4995 34.5318C59.9669 29.7112 66.0247 27 71.4981 27C73.585 27 75.5645 27.3873 77.377 28.15C82.1529 30.1581 84.4722 34.216 85.0684 35.4077C87.9602 41.1817 87.6203 48.8208 84.1085 56.9187C78.7961 69.1698 67.8313 79.0494 55.4952 82.7021L54.4935 83L53.4918 82.7021H53.5037Z" fill="#050009"></path><path d="M81.9324 36.9764C81.6581 36.4282 79.8754 33.0019 76.0177 31.3812C69.9302 28.8249 61.6067 31.9949 54.4996 39.3897C47.3925 31.9949 39.069 28.8249 32.9814 31.3812C29.1298 33.0019 27.347 36.4222 27.0668 36.9764C20.86 49.3646 33.8341 73.2114 54.4936 79.3369C75.1532 73.2114 88.1332 49.3646 81.9205 36.9764H81.9324Z" fill="#FF59E4"></path></svg>