<svg xmlns="http://www.w3.org/2000/svg" width="37" height="37" viewBox="0 0 37 37" fill="none"><rect x="0.898438" y="0.234375" width="36" height="36" rx="8" fill="#F2F1FA"></rect><path fill-rule="evenodd" clip-rule="evenodd" d="M9.89844 18.2344C9.89844 14.6392 9.89844 12.8417 10.7551 11.5469C11.1377 10.9688 11.6328 10.4736 12.211 10.0911C13.5057 9.23438 15.3033 9.23438 18.8984 9.23438C22.4936 9.23438 24.2911 9.23438 25.5859 10.0911C26.164 10.4736 26.6592 10.9688 27.0417 11.5469C27.8984 12.8417 27.8984 14.6392 27.8984 18.2344C27.8984 21.8295 27.8984 23.6271 27.0417 24.9218C26.6592 25.5 26.164 25.9951 25.5859 26.3777C24.2911 27.2344 22.4936 27.2344 18.8984 27.2344C15.3033 27.2344 13.5057 27.2344 12.211 26.3777C11.6328 25.9951 11.1377 25.5 10.7551 24.9218C9.89844 23.6271 9.89844 21.8295 9.89844 18.2344ZM23.5581 18.2347C23.5581 20.808 21.472 22.8941 18.8986 22.8941C16.3253 22.8941 14.2392 20.808 14.2392 18.2347C14.2392 15.6613 16.3253 13.5753 18.8986 13.5753C21.472 13.5753 23.5581 15.6613 23.5581 18.2347ZM18.8986 21.3177C20.6013 21.3177 21.9816 19.9374 21.9816 18.2347C21.9816 16.532 20.6013 15.1517 18.8986 15.1517C17.1959 15.1517 15.8156 16.532 15.8156 18.2347C15.8156 19.9374 17.1959 21.3177 18.8986 21.3177ZM23.7421 14.436C24.3467 14.436 24.8369 13.9458 24.8369 13.3412C24.8369 12.7365 24.3467 12.2463 23.7421 12.2463C23.1374 12.2463 22.6473 12.7365 22.6473 13.3412C22.6473 13.9458 23.1374 14.436 23.7421 14.436Z" fill="#2D5BFF"></path></svg>