<svg xmlns="http://www.w3.org/2000/svg" width="19" height="18" viewBox="0 0 19 18" fill="none"><path fill-rule="evenodd" clip-rule="evenodd" d="M0.898438 9C0.898438 5.40486 0.898438 3.60729 1.75513 2.31255C2.13768 1.73439 2.63283 1.23925 3.21099 0.856692C4.50573 0 6.3033 0 9.89844 0C13.4936 0 15.2911 0 16.5859 0.856692C17.164 1.23925 17.6592 1.73439 18.0417 2.31255C18.8984 3.60729 18.8984 5.40486 18.8984 9C18.8984 12.5951 18.8984 14.3927 18.0417 15.6874C17.6592 16.2656 17.164 16.7608 16.5859 17.1433C15.2911 18 13.4936 18 9.89844 18C6.3033 18 4.50573 18 3.21099 17.1433C2.63283 16.7608 2.13768 16.2656 1.75513 15.6874C0.898438 14.3927 0.898438 12.5951 0.898438 9ZM14.5581 9.00029C14.5581 11.5736 12.472 13.6597 9.89864 13.6597C7.32532 13.6597 5.23923 11.5736 5.23923 9.00029C5.23923 6.42697 7.32532 4.34088 9.89864 4.34088C12.472 4.34088 14.5581 6.42697 14.5581 9.00029ZM9.89864 12.0833C11.6013 12.0833 12.9816 10.703 12.9816 9.00029C12.9816 7.29759 11.6013 5.91728 9.89864 5.91728C8.19594 5.91728 6.81564 7.29759 6.81564 9.00029C6.81564 10.703 8.19594 12.0833 9.89864 12.0833ZM14.7421 5.20161C15.3467 5.20161 15.8369 4.71144 15.8369 4.10679C15.8369 3.50213 15.3467 3.01196 14.7421 3.01196C14.1374 3.01196 13.6473 3.50213 13.6473 4.10679C13.6473 4.71144 14.1374 5.20161 14.7421 5.20161Z" fill="#2D5BFF"></path></svg>