<svg xmlns="http://www.w3.org/2000/svg" width="19" height="18" viewBox="0 0 19 18" fill="none"><path d="M0.898438 1.99134C0.898438 1.41413 1.10115 0.937939 1.50655 0.56277C1.91195 0.187584 2.43898 0 3.08763 0C3.7247 0 4.24013 0.184693 4.63396 0.554112C5.03936 0.935065 5.24207 1.43145 5.24207 2.04329C5.24207 2.5974 5.04516 3.05915 4.65133 3.42857C4.24593 3.80952 3.71311 4 3.05288 4H3.0355C2.39843 4 1.883 3.80952 1.48917 3.42857C1.09534 3.04762 0.898438 2.56854 0.898438 1.99134ZM1.12431 17.1429V5.57576H4.98145V17.1429H1.12431ZM7.11852 17.1429H10.9757V10.684C10.9757 10.2799 11.022 9.96824 11.1147 9.74891C11.2768 9.35641 11.523 9.02452 11.8531 8.75324C12.1832 8.48195 12.5973 8.34632 13.0953 8.34632C14.3927 8.34632 15.0413 9.21788 15.0413 10.961V17.1429H18.8984V10.5108C18.8984 8.8023 18.493 7.50649 17.6822 6.62337C16.8714 5.74026 15.8 5.2987 14.4679 5.2987C12.9737 5.2987 11.8096 5.93939 10.9757 7.22078V7.25541H10.9583L10.9757 7.22078V5.57576H7.11852C7.14167 5.94516 7.15326 7.09378 7.15326 9.02164C7.15326 10.9495 7.14167 13.6565 7.11852 17.1429Z" fill="#2D5BFF"></path></svg>