<svg xmlns="http://www.w3.org/2000/svg" width="37" height="37" viewBox="0 0 37 37" fill="none"><rect x="0.898438" y="0.234375" width="36" height="36" rx="8" fill="#F2F1FA"></rect><path d="M9.89844 11.2257C9.89844 10.6485 10.1011 10.1723 10.5065 9.79715C10.9119 9.42196 11.439 9.23438 12.0876 9.23438C12.7247 9.23438 13.2401 9.41907 13.634 9.78849C14.0394 10.1694 14.2421 10.6658 14.2421 11.2777C14.2421 11.8318 14.0452 12.2935 13.6513 12.6629C13.2459 13.0439 12.7131 13.2344 12.0529 13.2344H12.0355C11.3984 13.2344 10.883 13.0439 10.4892 12.6629C10.0953 12.282 9.89844 11.8029 9.89844 11.2257ZM10.1243 26.3772V14.8101H13.9814V26.3772H10.1243ZM16.1185 26.3772H19.9757V19.9184C19.9757 19.5143 20.022 19.2026 20.1147 18.9833C20.2768 18.5908 20.523 18.2589 20.8531 17.9876C21.1832 17.7163 21.5973 17.5807 22.0953 17.5807C23.3927 17.5807 24.0413 18.4523 24.0413 20.1954V26.3772H27.8984V19.7452C27.8984 18.0367 27.493 16.7409 26.6822 15.8577C25.8714 14.9746 24.8 14.5331 23.4679 14.5331C21.9737 14.5331 20.8096 15.1738 19.9757 16.4552V16.4898H19.9583L19.9757 16.4552V14.8101H16.1185C16.1417 15.1795 16.1533 16.3282 16.1533 18.256C16.1533 20.1839 16.1417 22.8909 16.1185 26.3772Z" fill="#2D5BFF"></path></svg>