<svg xmlns="http://www.w3.org/2000/svg" width="218" height="66" viewBox="0 0 218 66" fill="none"><path d="M0.763889 44.6111C0.763889 56.002 9.99802 65.2361 21.3889 65.2361H196.167C207.558 65.2361 216.792 56.002 216.792 44.6111V21.3889C216.792 9.998 207.558 0.763889 196.167 0.763889H21.3889C9.99802 0.763889 0.763889 9.99802 0.763889 21.3889V44.6111Z" fill="white"></path><path d="M0.763889 44.6111C0.763889 56.002 9.99802 65.2361 21.3889 65.2361H196.167C207.558 65.2361 216.792 56.002 216.792 44.6111V21.3889C216.792 9.998 207.558 0.763889 196.167 0.763889H21.3889C9.99802 0.763889 0.763889 9.99802 0.763889 21.3889V44.6111Z" stroke="#0B2464" stroke-width="1.22222"></path><path d="M15.6453 13.1959C15.1673 13.6845 14.8906 14.4451 14.8906 15.4302V50.5685C14.8906 51.5536 15.1673 52.3143 15.6453 52.8029L15.7633 52.9102L35.9307 33.2278V32.763L15.7633 13.0807L15.6453 13.1959Z" fill="url(#paint0_linear_2413_650)"></path><path d="M42.6447 39.793L35.9297 33.2289V32.7641L42.6528 26.2L42.8034 26.2854L50.7654 30.7085C53.0376 31.9637 53.0376 34.0293 50.7654 35.2924L42.8034 39.7076L42.6447 39.793Z" fill="url(#paint1_linear_2413_650)"></path><path d="M42.8036 39.7075L35.9299 32.9964L15.6445 52.8039C16.3992 53.5785 17.6299 53.6718 19.0295 52.8972L42.8036 39.7075Z" fill="url(#paint2_linear_2413_650)"></path><path d="M42.8036 26.285L19.0295 13.0953C17.6299 12.3286 16.3992 12.422 15.6445 13.1966L35.9299 32.9961L42.8036 26.285Z" fill="url(#paint3_linear_2413_650)"></path><path d="M108.789 34.9834C104.967 34.9834 101.845 37.8235 101.845 41.7421C101.845 45.6289 104.967 48.4988 108.789 48.4988C112.62 48.4988 115.742 45.6289 115.742 41.7421C115.742 37.8235 112.62 34.9834 108.789 34.9834ZM108.789 45.8375C106.692 45.8375 104.888 44.1473 104.888 41.7421C104.888 39.3051 106.692 37.6447 108.789 37.6447C110.887 37.6447 112.699 39.3051 112.699 41.7421C112.699 44.1473 110.887 45.8375 108.789 45.8375ZM93.6364 34.9834C89.8059 34.9834 86.6915 37.8235 86.6915 41.7421C86.6915 45.6289 89.8059 48.4988 93.6364 48.4988C97.4648 48.4988 100.581 45.6289 100.581 41.7421C100.581 37.8235 97.4648 34.9834 93.6364 34.9834ZM93.6364 45.8375C91.5371 45.8375 89.7266 44.1473 89.7266 41.7421C89.7266 39.3051 91.5371 37.6447 93.6364 37.6447C95.7337 37.6447 97.5381 39.3051 97.5381 41.7421C97.5381 44.1473 95.7337 45.8375 93.6364 45.8375ZM75.6049 37.0549V39.9268H82.6291C82.4237 41.5316 81.8744 42.7113 81.0323 43.5336C80.007 44.5266 78.4101 45.6289 75.6049 45.6289C71.2822 45.6289 67.8972 42.2227 67.8972 38.0022C67.8972 33.7818 71.2822 30.3756 75.6049 30.3756C77.9423 30.3756 79.6429 31.2673 80.898 32.4233L82.9709 30.3994C81.2153 28.7629 78.88 27.5056 75.6049 27.5056C69.6772 27.5056 64.6953 32.2147 64.6953 38.0022C64.6953 43.7898 69.6772 48.4988 75.6049 48.4988C78.8088 48.4988 81.2153 47.474 83.1072 45.5514C85.0458 43.6587 85.65 40.9973 85.65 38.8483C85.65 38.181 85.593 37.5673 85.4913 37.0549H75.6049ZM149.338 39.2813C148.766 37.7699 147.003 34.9834 143.41 34.9834C139.85 34.9834 136.886 37.7222 136.886 41.7421C136.886 45.5276 139.82 48.4988 143.752 48.4988C146.931 48.4988 148.766 46.6061 149.521 45.5038L147.161 43.9685C146.374 45.0927 145.302 45.8375 143.752 45.8375C142.212 45.8375 141.107 45.1483 140.399 43.7898L149.657 40.0499L149.338 39.2813ZM139.899 41.5316C139.82 38.9258 141.972 37.5911 143.514 37.5911C144.722 37.5911 145.747 38.181 146.089 39.0251L139.899 41.5316ZM132.374 48.0877H135.418V28.2266H132.374V48.0877ZM127.39 36.4888H127.289C126.605 35.6984 125.301 34.9834 123.65 34.9834C120.183 34.9834 117.014 37.9546 117.014 41.7639C117.014 45.5515 120.183 48.4988 123.65 48.4988C125.301 48.4988 126.605 47.7779 127.289 46.9636H127.39V47.9328C127.39 50.5167 125.977 51.905 123.696 51.905C121.837 51.905 120.684 50.5942 120.208 49.4919L117.561 50.5704C118.324 52.3618 120.344 54.5664 123.696 54.5664C127.264 54.5664 130.275 52.5167 130.275 47.5296V35.3945H127.39V36.4888ZM123.91 45.8375C121.813 45.8375 120.057 44.1234 120.057 41.7639C120.057 39.3826 121.813 37.6447 123.91 37.6447C125.977 37.6447 127.606 39.3826 127.606 41.7639C127.606 44.1234 125.977 45.8375 123.91 45.8375ZM163.586 28.2266H156.307V48.0877H159.342V40.5623H163.586C166.956 40.5623 170.262 38.181 170.262 34.3935C170.262 30.608 166.948 28.2266 163.586 28.2266ZM163.665 37.7997H159.342V30.9893H163.665C165.931 30.9893 167.225 32.8264 167.225 34.3935C167.225 35.9307 165.931 37.7997 163.665 37.7997ZM182.427 34.9456C180.234 34.9456 177.953 35.891 177.016 37.9864L179.709 39.0886C180.289 37.9864 181.355 37.6289 182.482 37.6289C184.056 37.6289 185.653 38.5524 185.677 40.183V40.3915C185.128 40.0817 183.952 39.6229 182.506 39.6229C179.605 39.6229 176.649 41.182 176.649 44.0917C176.649 46.753 179.025 48.4671 181.696 48.4671C183.739 48.4671 184.866 47.5674 185.574 46.5207H185.677V48.0559H188.609V40.4372C188.609 36.9158 185.915 34.9456 182.427 34.9456ZM182.061 45.8295C181.068 45.8295 179.685 45.3489 179.685 44.1473C179.685 42.61 181.41 42.0201 182.903 42.0201C184.239 42.0201 184.866 42.3081 185.677 42.6875C185.439 44.5266 183.818 45.8295 182.061 45.8295ZM199.289 35.3806L195.8 43.9904H195.696L192.089 35.3806H188.816L194.235 47.4124L191.143 54.1076H194.315L202.665 35.3806H199.289ZM171.93 48.0877H174.973V28.2266H171.93V48.0877Z" fill="black"></path><path d="M74.5654 16.8021C74.5654 18.1288 74.1586 19.1913 73.3571 19.9838C72.4356 20.9232 71.2354 21.3959 69.7646 21.3959C68.359 21.3959 67.1588 20.9153 66.1742 19.9679C65.1876 19.0066 64.6953 17.8269 64.6953 16.4148C64.6953 15.0026 65.1876 13.8229 66.1742 12.8696C67.1588 11.9142 68.359 11.4336 69.7646 11.4336C70.4644 11.4336 71.1316 11.5746 71.7684 11.8368C72.403 12.1009 72.9197 12.4584 73.294 12.8993L72.4437 13.7375C71.7907 12.9847 70.9018 12.6133 69.7646 12.6133C68.7394 12.6133 67.8504 12.9629 67.0957 13.668C66.3491 14.375 65.9748 15.2906 65.9748 16.4148C65.9748 17.5389 66.3491 18.4624 67.0957 19.1695C67.8504 19.8666 68.7394 20.2241 69.7646 20.2241C70.8529 20.2241 71.7684 19.8666 72.4905 19.1615C72.9665 18.6948 73.2371 18.0513 73.3083 17.2291H69.7646V16.0811H74.4922C74.5492 16.3294 74.5654 16.5697 74.5654 16.8021Z" fill="black"></path><path d="M82.0651 12.8222H77.6243V15.8411H81.6277V16.989H77.6243V20.0079H82.0651V21.1777H76.3672V11.6523H82.0651V12.8222Z" fill="black"></path><path d="M87.3599 21.1777H86.1027V12.8222H83.3789V11.6523H90.0858V12.8222H87.3599V21.1777Z" fill="black"></path><path d="M94.9375 21.1777V11.6523H96.1926V21.1777H94.9375Z" fill="black"></path><path d="M101.754 21.1777H100.507V12.8222H97.7734V11.6523H104.488V12.8222H101.754V21.1777Z" fill="black"></path><path d="M117.189 19.952C116.226 20.9153 115.034 21.3959 113.612 21.3959C112.182 21.3959 110.99 20.9153 110.028 19.952C109.068 18.9907 108.59 17.811 108.59 16.4148C108.59 15.0185 109.068 13.8388 110.028 12.8775C110.99 11.9142 112.182 11.4336 113.612 11.4336C115.026 11.4336 116.218 11.9142 117.18 12.8854C118.149 13.8547 118.627 15.0265 118.627 16.4148C118.627 17.811 118.149 18.9907 117.189 19.952ZM110.958 19.1536C111.682 19.8666 112.563 20.2241 113.612 20.2241C114.654 20.2241 115.543 19.8666 116.259 19.1536C116.981 18.4406 117.347 17.525 117.347 16.4148C117.347 15.3045 116.981 14.3889 116.259 13.6759C115.543 12.9629 114.654 12.6054 113.612 12.6054C112.563 12.6054 111.682 12.9629 110.958 13.6759C110.236 14.3889 109.869 15.3045 109.869 16.4148C109.869 17.525 110.236 18.4406 110.958 19.1536Z" fill="black"></path><path d="M120.391 21.1777V11.6523H121.916L126.66 19.0605H126.715L126.66 17.2293V11.6523H127.915V21.1777H126.605L121.638 13.4041H121.583L121.638 15.2432V21.1777H120.391Z" fill="black"></path><defs><linearGradient id="paint0_linear_2413_650" x1="34.1401" y1="50.9345" x2="7.48238" y2="23.6308" gradientUnits="userSpaceOnUse"><stop stop-color="#00A0FF"></stop><stop offset="0.0066" stop-color="#00A1FF"></stop><stop offset="0.2601" stop-color="#00BEFF"></stop><stop offset="0.5122" stop-color="#00D2FF"></stop><stop offset="0.7604" stop-color="#00DFFF"></stop><stop offset="1" stop-color="#00E3FF"></stop></linearGradient><linearGradient id="paint1_linear_2413_650" x1="53.7242" y1="32.9943" x2="14.3464" y2="32.9943" gradientUnits="userSpaceOnUse"><stop stop-color="#FFE000"></stop><stop offset="0.4087" stop-color="#FFBD00"></stop><stop offset="0.7754" stop-color="#FFA500"></stop><stop offset="1" stop-color="#FF9C00"></stop></linearGradient><linearGradient id="paint2_linear_2413_650" x1="39.0659" y1="29.3481" x2="2.91588" y2="-7.67785" gradientUnits="userSpaceOnUse"><stop stop-color="#FF3A44"></stop><stop offset="1" stop-color="#C31162"></stop></linearGradient><linearGradient id="paint3_linear_2413_650" x1="10.5383" y1="64.4939" x2="26.6809" y2="47.9603" gradientUnits="userSpaceOnUse"><stop stop-color="#32A071"></stop><stop offset="0.0685" stop-color="#2DA771"></stop><stop offset="0.4762" stop-color="#15CF74"></stop><stop offset="0.8009" stop-color="#06E775"></stop><stop offset="1" stop-color="#00F076"></stop></linearGradient></defs></svg>