<svg xmlns="http://www.w3.org/2000/svg" width="217" height="66" viewBox="0 0 217 66" fill="none"><path d="M0.611111 17.1111C0.611111 7.99841 7.99841 0.611111 17.1111 0.611111H199.889C209.002 0.611111 216.389 7.99841 216.389 17.1111V48.8889C216.389 58.0016 209.002 65.3889 199.889 65.3889H17.1111C7.99842 65.3889 0.611111 58.0016 0.611111 48.8889V17.1111Z" fill="white"></path><path d="M0.611111 17.1111C0.611111 7.99841 7.99841 0.611111 17.1111 0.611111H199.889C209.002 0.611111 216.389 7.99841 216.389 17.1111V48.8889C216.389 58.0016 209.002 65.3889 199.889 65.3889H17.1111C7.99842 65.3889 0.611111 58.0016 0.611111 48.8889V17.1111Z" stroke="#0B2464" stroke-width="1.22222"></path><path d="M55.1647 34.1648C55.122 29.5396 59.0489 27.2894 59.2285 27.1846C57.0045 24.0232 53.5574 23.5912 52.3461 23.5568C49.4509 23.2598 46.6426 25.2459 45.1678 25.2459C43.6636 25.2459 41.3925 23.5855 38.9448 23.6343C35.7951 23.6817 32.8484 25.4597 31.2323 28.2208C27.8971 33.8505 30.3845 42.1236 33.5799 46.6742C35.1783 48.9028 37.0461 51.3912 39.4909 51.3037C41.8827 51.2075 42.7761 49.817 45.6624 49.817C48.5222 49.817 49.3612 51.3037 51.8545 51.2477C54.4214 51.2075 56.0375 49.009 57.58 46.7603C59.4272 44.2059 60.169 41.6902 60.1984 41.5611C60.1381 41.541 55.2133 39.7084 55.1647 34.1648Z" fill="black"></path><path d="M50.4547 20.5633C51.7411 18.9948 52.6213 16.8608 52.377 14.6953C50.5151 14.7757 48.1866 15.951 46.8458 17.4851C45.6594 18.8369 44.5997 21.0526 44.8735 23.1363C46.965 23.2885 49.1124 22.1074 50.4547 20.5633Z" fill="black"></path><path d="M79.5152 17.2618C79.5152 18.9508 78.9957 20.2223 77.958 21.0761C76.9969 21.864 75.631 22.2586 73.8618 22.2586C72.9846 22.2586 72.234 22.2213 71.6055 22.1467V12.9178C72.4253 12.7887 73.3084 12.7227 74.2622 12.7227C75.9474 12.7227 77.2177 13.08 78.0743 13.7946C79.0339 14.6026 79.5152 15.7578 79.5152 17.2618ZM77.8888 17.3034C77.8888 16.2084 77.5915 15.3689 76.9969 14.7834C76.4023 14.1993 75.5339 13.9066 74.3902 13.9066C73.9045 13.9066 73.4909 13.9382 73.148 14.0042V21.0202C73.3378 21.0489 73.6852 21.0618 74.1901 21.0618C75.3705 21.0618 76.2816 20.7418 76.9233 20.1017C77.565 19.4617 77.8888 18.5289 77.8888 17.3034Z" fill="black"></path><path d="M88.1393 18.7338C88.1393 19.7742 87.8346 20.6266 87.2253 21.2953C86.5865 21.9827 85.7402 22.3257 84.6834 22.3257C83.6649 22.3257 82.8539 21.9971 82.2489 21.337C81.6455 20.6783 81.3438 19.8474 81.3438 18.8457C81.3438 17.7981 81.6543 16.9385 82.2784 16.2712C82.9024 15.6039 83.7414 15.2695 84.7982 15.2695C85.8167 15.2695 86.6351 15.5982 87.2547 16.2569C87.8435 16.8969 88.1393 17.7235 88.1393 18.7338ZM86.5394 18.7826C86.5394 18.1583 86.4011 17.623 86.1258 17.1767C85.802 16.6371 85.3413 16.3674 84.7423 16.3674C84.1226 16.3674 83.6516 16.6371 83.3278 17.1767C83.0511 17.623 82.9142 18.1669 82.9142 18.8098C82.9142 19.4341 83.0526 19.9694 83.3278 20.4157C83.6619 20.9552 84.127 21.225 84.7276 21.225C85.3163 21.225 85.7785 20.9509 86.1111 20.4013C86.3966 19.9464 86.5394 19.4068 86.5394 18.7826Z" fill="black"></path><path d="M99.7012 15.4102L97.5302 22.175H96.1172L95.2179 19.2375C94.9898 18.5041 94.8043 17.7751 94.6601 17.0519H94.6321C94.4982 17.7952 94.3127 18.5228 94.0743 19.2375L93.1191 22.175H91.6899L89.6484 15.4102H91.2336L92.0181 18.6261C92.208 19.3867 92.364 20.1114 92.4891 20.7974H92.5171C92.6319 20.232 92.8218 19.5116 93.0896 18.6405L94.0743 15.4116H95.3313L96.2747 18.5716C96.5029 19.3422 96.6883 20.0841 96.8311 20.7988H96.8738C96.9783 20.1028 97.1358 19.3609 97.3448 18.5716L98.1867 15.4116H99.7012V15.4102Z" fill="black"></path><path d="M107.699 22.1726H106.156V18.2979C106.156 17.1039 105.691 16.507 104.758 16.507C104.3 16.507 103.931 16.6705 103.644 16.9992C103.36 17.3278 103.216 17.7153 103.216 18.1587V22.1711H101.673V17.3407C101.673 16.7466 101.654 16.1023 101.617 15.4048H102.973L103.045 16.4625H103.088C103.267 16.1338 103.535 15.8626 103.887 15.6459C104.305 15.3933 104.773 15.2656 105.285 15.2656C105.933 15.2656 106.471 15.4694 106.9 15.8784C107.432 16.3792 107.699 17.1269 107.699 18.12V22.1726Z" fill="black"></path><path d="M111.951 22.1736H110.41V12.3047H111.951V22.1736Z" fill="black"></path><path d="M121.03 18.7338C121.03 19.7742 120.725 20.6266 120.116 21.2953C119.477 21.9827 118.629 22.3257 117.574 22.3257C116.554 22.3257 115.743 21.9971 115.14 21.337C114.536 20.6783 114.234 19.8474 114.234 18.8457C114.234 17.7981 114.545 16.9385 115.169 16.2712C115.793 15.6039 116.632 15.2695 117.687 15.2695C118.707 15.2695 119.524 15.5982 120.145 16.2569C120.734 16.8969 121.03 17.7235 121.03 18.7338ZM119.429 18.7826C119.429 18.1583 119.29 17.623 119.015 17.1767C118.693 16.6371 118.23 16.3674 117.633 16.3674C117.012 16.3674 116.541 16.6371 116.218 17.1767C115.942 17.623 115.805 18.1669 115.805 18.8098C115.805 19.4341 115.943 19.9694 116.218 20.4157C116.553 20.9552 117.018 21.225 117.618 21.225C118.207 21.225 118.668 20.9509 119 20.4013C119.287 19.9464 119.429 19.4068 119.429 18.7826Z" fill="black"></path><path d="M128.501 22.1722H127.116L127.001 21.3929H126.958C126.484 22.0143 125.809 22.3257 124.932 22.3257C124.277 22.3257 123.747 22.1205 123.348 21.7129C122.986 21.3427 122.805 20.882 122.805 20.3353C122.805 19.5087 123.158 18.8787 123.869 18.4424C124.578 18.0062 125.576 17.7924 126.861 17.8024V17.6761C126.861 16.785 126.381 16.3401 125.42 16.3401C124.736 16.3401 124.132 16.508 123.611 16.8409L123.298 15.8536C123.942 15.4647 124.739 15.2695 125.678 15.2695C127.491 15.2695 128.401 16.2023 128.401 18.0679V20.5592C128.401 21.2351 128.435 21.7732 128.501 22.1722ZM126.899 19.8474V18.8041C125.198 18.7754 124.347 19.2303 124.347 20.1674C124.347 20.5204 124.444 20.7845 124.643 20.961C124.842 21.1375 125.095 21.225 125.397 21.225C125.735 21.225 126.052 21.1203 126.34 20.9122C126.63 20.7027 126.808 20.4372 126.874 20.1114C126.891 20.0382 126.899 19.9493 126.899 19.8474Z" fill="black"></path><path d="M137.264 22.1736H135.895L135.823 21.0873H135.78C135.343 21.9138 134.598 22.3271 133.552 22.3271C132.716 22.3271 132.02 22.0071 131.468 21.3671C130.916 20.7271 130.641 19.8962 130.641 18.8758C130.641 17.7809 130.939 16.894 131.54 16.2167C132.121 15.5852 132.834 15.2695 133.681 15.2695C134.613 15.2695 135.265 15.5752 135.636 16.188H135.666V12.3047H137.21V20.3511C137.21 21.0098 137.227 21.6168 137.264 22.1736ZM135.666 19.3207V18.1927C135.666 17.9976 135.651 17.8397 135.623 17.7192C135.536 17.3575 135.349 17.0533 135.065 16.8079C134.778 16.5625 134.432 16.4391 134.033 16.4391C133.458 16.4391 133.007 16.6615 132.676 17.1078C132.348 17.5541 132.182 18.1239 132.182 18.8199C132.182 19.4886 132.339 20.0311 132.656 20.4487C132.99 20.8935 133.44 21.116 134.004 21.116C134.51 21.116 134.915 20.9308 135.223 20.5592C135.52 20.2162 135.666 19.8029 135.666 19.3207Z" fill="black"></path><path d="M150.456 18.7338C150.456 19.7742 150.151 20.6266 149.542 21.2953C148.903 21.9827 148.058 22.3257 147 22.3257C145.983 22.3257 145.172 21.9971 144.565 21.337C143.962 20.6783 143.66 19.8474 143.66 18.8457C143.66 17.7981 143.971 16.9385 144.595 16.2712C145.219 15.6039 146.058 15.2695 147.116 15.2695C148.133 15.2695 148.953 15.5982 149.571 16.2569C150.16 16.8969 150.456 17.7235 150.456 18.7338ZM148.857 18.7826C148.857 18.1583 148.719 17.623 148.444 17.1767C148.118 16.6371 147.659 16.3674 147.059 16.3674C146.44 16.3674 145.969 16.6371 145.644 17.1767C145.368 17.623 145.231 18.1669 145.231 18.8098C145.231 19.4341 145.369 19.9694 145.644 20.4157C145.978 20.9552 146.443 21.225 147.044 21.225C147.633 21.225 148.096 20.9509 148.429 20.4013C148.713 19.9464 148.857 19.4068 148.857 18.7826Z" fill="black"></path><path d="M158.752 22.1726H157.211V18.2979C157.211 17.1039 156.746 16.507 155.811 16.507C155.354 16.507 154.984 16.6705 154.699 16.9992C154.413 17.3278 154.27 17.7153 154.27 18.1587V22.1711H152.726V17.3407C152.726 16.7466 152.709 16.1023 152.672 15.4048H154.026L154.098 16.4625H154.141C154.322 16.1338 154.59 15.8626 154.94 15.6459C155.359 15.3933 155.826 15.2656 156.34 15.2656C156.986 15.2656 157.525 15.4694 157.953 15.8784C158.487 16.3792 158.752 17.1269 158.752 18.12V22.1726Z" fill="black"></path><path d="M169.132 16.5339H167.433V19.8202C167.433 20.6554 167.735 21.073 168.333 21.073C168.609 21.073 168.839 21.0501 169.02 21.0027L169.06 22.1436C168.755 22.2555 168.355 22.3115 167.862 22.3115C167.252 22.3115 166.778 22.1307 166.435 21.769C166.091 21.4074 165.92 20.7989 165.92 19.9451V16.5339H164.906V15.4074H165.92V14.1675L167.432 13.7227V15.406H169.13V16.5339H169.132Z" fill="black"></path><path d="M177.299 22.1736H175.755V18.3276C175.755 17.115 175.29 16.508 174.358 16.508C173.643 16.508 173.154 16.8596 172.887 17.5627C172.841 17.7106 172.814 17.8914 172.814 18.1038V22.1722H171.273V12.3047H172.814V16.3817H172.844C173.33 15.6398 174.026 15.2695 174.928 15.2695C175.567 15.2695 176.095 15.4733 176.515 15.8823C177.037 16.3917 177.299 17.1495 177.299 18.1511V22.1736Z" fill="black"></path><path d="M185.719 18.4709C185.719 18.7407 185.699 18.9674 185.662 19.1526H181.036C181.056 19.8213 181.277 20.3307 181.706 20.6838C182.097 20.9995 182.602 21.1573 183.22 21.1573C183.905 21.1573 184.529 21.0511 185.091 20.8373L185.332 21.882C184.674 22.1604 183.9 22.2997 183.004 22.2997C181.929 22.2997 181.083 21.9911 180.471 21.374C179.855 20.757 179.551 19.9289 179.551 18.8899C179.551 17.8696 179.835 17.0201 180.407 16.3427C181.005 15.6194 181.813 15.2578 182.833 15.2578C183.831 15.2578 184.589 15.6194 185.101 16.3427C185.515 16.9167 185.719 17.6271 185.719 18.4709ZM184.247 18.082C184.259 17.6357 184.158 17.2511 183.949 16.9268C183.681 16.5092 183.273 16.2997 182.721 16.2997C182.218 16.2997 181.807 16.5034 181.494 16.9124C181.238 17.2382 181.086 17.6271 181.036 18.082H184.247Z" fill="black"></path><path d="M86.5129 48.0861H83.1703L81.3393 42.4764H74.975L73.2308 48.0861H69.9766L76.282 28.9883H80.1765L86.5129 48.0861ZM80.7873 40.1229L79.1315 35.1361C78.9564 34.6266 78.6281 33.4269 78.1439 31.5384H78.085C77.8922 32.3506 77.5816 33.5503 77.1548 35.1361L75.5284 40.1229H80.7873Z" fill="black"></path><path d="M102.726 41.03C102.726 43.3721 102.077 45.2233 100.779 46.5823C99.6164 47.792 98.1725 48.3962 96.449 48.3962C94.5885 48.3962 93.2521 47.7447 92.4381 46.4416H92.3793V53.6959H89.2413V38.8473C89.2413 37.3749 89.2015 35.8638 89.125 34.314H91.8847L92.0599 36.4967H92.1188C93.1652 34.8521 94.7534 34.0312 96.8846 34.0312C98.5508 34.0312 99.9417 34.6727 101.054 35.9571C102.17 37.2429 102.726 38.9334 102.726 41.03ZM99.5296 41.142C99.5296 39.8016 99.2205 38.6966 98.5993 37.827C97.9208 36.92 97.0097 36.4665 95.8676 36.4665C95.0934 36.4665 94.3898 36.7191 93.7613 37.2171C93.1314 37.7194 92.7193 38.3752 92.5265 39.1874C92.4293 39.5663 92.3807 39.8762 92.3807 40.1202V42.4163C92.3807 43.418 92.6957 44.2632 93.3257 44.9535C93.9556 45.6438 94.774 45.9882 95.7807 45.9882C96.9626 45.9882 97.8825 45.5433 98.5405 44.6564C99.1999 43.7681 99.5296 42.5971 99.5296 41.142Z" fill="black"></path><path d="M118.975 41.03C118.975 43.3721 118.326 45.2233 117.026 46.5823C115.865 47.792 114.421 48.3962 112.697 48.3962C110.837 48.3962 109.501 47.7447 108.688 46.4416H108.629V53.6959H105.491V38.8473C105.491 37.3749 105.452 35.8638 105.375 34.314H108.135L108.31 36.4967H108.369C109.414 34.8521 111.002 34.0312 113.135 34.0312C114.799 34.0312 116.19 34.6727 117.306 35.9571C118.417 37.2429 118.975 38.9334 118.975 41.03ZM115.778 41.142C115.778 39.8016 115.468 38.6966 114.846 37.827C114.168 36.92 113.26 36.4665 112.116 36.4665C111.34 36.4665 110.638 36.7191 110.008 37.2171C109.378 37.7194 108.968 38.3752 108.775 39.1874C108.679 39.5663 108.629 39.8762 108.629 40.1202V42.4163C108.629 43.418 108.944 44.2632 109.571 44.9535C110.201 45.6423 111.02 45.9882 112.029 45.9882C113.211 45.9882 114.131 45.5433 114.789 44.6564C115.448 43.7681 115.778 42.5971 115.778 41.142Z" fill="black"></path><path d="M137.136 42.729C137.136 44.3535 136.558 45.6752 135.396 46.6955C134.12 47.8106 132.344 48.3674 130.061 48.3674C127.953 48.3674 126.263 47.9713 124.984 47.1777L125.711 44.6276C127.089 45.4398 128.601 45.8474 130.248 45.8474C131.43 45.8474 132.35 45.5862 133.01 45.0667C133.668 44.5472 133.997 43.8498 133.997 42.9801C133.997 42.2052 133.726 41.5523 133.183 41.0227C132.642 40.4932 131.74 40.001 130.48 39.546C127.051 38.299 125.338 36.4721 125.338 34.0699C125.338 32.4999 125.938 31.2126 127.141 30.211C128.339 29.2079 129.937 28.707 131.936 28.707C133.718 28.707 135.199 29.0098 136.381 29.614L135.596 32.1081C134.493 31.5226 133.244 31.2299 131.848 31.2299C130.744 31.2299 129.881 31.4954 129.263 32.0235C128.741 32.4956 128.479 33.0711 128.479 33.7527C128.479 34.5075 128.777 35.1318 129.378 35.6226C129.9 36.0761 130.85 36.5669 132.227 37.0964C133.913 37.758 135.15 38.5315 135.947 39.4183C136.74 40.3023 137.136 41.4087 137.136 42.729Z" fill="black"></path><path d="M147.512 36.6101H144.053V43.2961C144.053 44.9966 144.662 45.8462 145.884 45.8462C146.445 45.8462 146.91 45.7988 147.278 45.7041L147.364 48.0275C146.746 48.2528 145.932 48.3662 144.924 48.3662C143.685 48.3662 142.716 47.9973 142.017 47.2612C141.321 46.5235 140.971 45.2865 140.971 43.5487V36.6073H138.91V34.3112H140.971V31.7898L144.053 30.8828V34.3112H147.512V36.6101Z" fill="black"></path><path d="M163.115 41.0846C163.115 43.2013 162.494 44.9391 161.255 46.2981C159.955 47.6973 158.23 48.3948 156.08 48.3948C154.007 48.3948 152.357 47.7246 151.127 46.3842C149.896 45.0439 149.281 43.352 149.281 41.3127C149.281 39.1788 149.914 37.4309 151.184 36.0719C152.452 34.7115 154.162 34.0312 156.312 34.0312C158.385 34.0312 160.052 34.7014 161.311 36.0432C162.515 37.3448 163.115 39.0253 163.115 41.0846ZM159.859 41.1836C159.859 39.9136 159.581 38.8244 159.018 37.916C158.36 36.8167 157.419 36.2685 156.2 36.2685C154.939 36.2685 153.981 36.8181 153.323 37.916C152.759 38.8258 152.481 39.9322 152.481 41.241C152.481 42.511 152.759 43.6002 153.323 44.5072C154.001 45.6064 154.949 46.1546 156.172 46.1546C157.371 46.1546 158.311 45.595 158.99 44.4785C159.568 43.5529 159.859 42.4522 159.859 41.1836Z" fill="black"></path><path d="M173.318 37.0047C173.008 36.9487 172.677 36.92 172.329 36.92C171.225 36.92 170.372 37.3261 169.771 38.1398C169.249 38.8574 168.987 39.7643 168.987 40.8593V48.0848H165.85L165.879 38.6507C165.879 37.0635 165.84 35.6184 165.762 34.3154H168.495L168.61 36.9502H168.697C169.028 36.0446 169.55 35.3156 170.266 34.7689C170.965 34.2766 171.72 34.0312 172.534 34.0312C172.824 34.0312 173.086 34.0513 173.318 34.0872V37.0047Z" fill="black"></path><path d="M187.353 40.5463C187.353 41.0945 187.316 41.5566 187.238 41.934H177.824C177.861 43.2945 178.316 44.3349 179.19 45.0524C179.983 45.6939 181.009 46.0154 182.269 46.0154C183.663 46.0154 184.935 45.7987 186.078 45.3638L186.57 47.4877C185.233 48.056 183.655 48.3387 181.835 48.3387C179.645 48.3387 177.926 47.7102 176.674 46.4545C175.426 45.1988 174.801 43.5126 174.801 41.3973C174.801 39.3208 175.382 37.5916 176.546 36.2125C177.765 34.7401 179.412 34.0039 181.484 34.0039C183.52 34.0039 185.061 34.7401 186.108 36.2125C186.936 37.382 187.353 38.8286 187.353 40.5463ZM184.36 39.7528C184.381 38.8458 184.176 38.0623 183.751 37.4007C183.208 36.5497 182.373 36.1249 181.25 36.1249C180.225 36.1249 179.39 36.5397 178.753 37.372C178.23 38.0336 177.92 38.8271 177.824 39.7513H184.36V39.7528Z" fill="black"></path></svg>