<svg xmlns="http://www.w3.org/2000/svg" width="109" height="108" viewBox="0 0 109 108" fill="none"><rect x="0.898438" width="108" height="108" rx="54" fill="#EEFEF0"></rect><path d="M82.8622 53.9161L81.5163 50.9848C80.8684 49.5744 80.552 48.0335 80.5972 46.4875L80.6825 43.2652C80.8131 38.5069 77.6139 34.3008 72.9884 33.1564L69.8544 32.3784C68.3477 32.007 66.9465 31.2892 65.7612 30.2904L63.2953 28.2124C59.6541 25.1457 54.3706 25.0252 50.5938 27.9213L48.0325 29.8839C46.802 30.8275 45.3706 31.4749 43.8489 31.7811L40.6848 32.4135C36.014 33.3471 32.624 37.3977 32.5386 42.1559L32.4783 45.3783C32.4482 46.9292 32.0665 48.4501 31.3533 49.8304L29.8768 52.6963C27.6971 56.9276 28.7518 62.1025 32.418 65.1391L34.9041 67.197C36.0994 68.1858 37.0486 69.4356 37.6865 70.851L39.0073 73.7923C40.956 78.134 45.6669 80.5332 50.3276 79.5644L53.4867 78.9069C55.0034 78.5907 56.5754 78.6259 58.0821 79.0123L61.206 79.8154C65.8165 80.9999 70.6329 78.8166 72.7774 74.5703L74.2339 71.6943C74.932 70.309 75.9415 69.1043 77.182 68.1708L79.7584 66.2283C83.5603 63.3623 84.8561 58.2427 82.8673 53.9161H82.8622ZM64.0034 62.1426C62.0246 64.1202 59.2875 65.3449 56.2691 65.3449C50.2272 65.3449 45.3254 60.4511 45.3254 54.4079C45.3254 51.3863 46.5509 48.6558 48.5297 46.6783C50.5085 44.7007 53.2456 43.476 56.264 43.476C59.2824 43.476 62.0196 44.7007 63.9984 46.6783C65.9772 48.6558 67.2026 51.3914 67.2026 54.4079C67.2026 57.4245 65.9772 60.16 63.9984 62.1376L64.0034 62.1426Z" fill="#76F535" stroke="black" stroke-width="3.02661" stroke-miterlimit="10"></path><path d="M43.7518 70.8395C42.8729 70.8395 42.0844 70.448 41.6374 69.8005C40.9142 68.7465 41.2557 67.316 42.009 66.543C42.5113 66.026 43.2696 65.7148 44.033 65.7148C44.696 65.7148 45.2936 65.9407 45.7205 66.3573C46.2127 66.8342 46.4588 67.5569 46.3935 68.3349C46.3282 69.1681 45.9164 69.931 45.2936 70.3727C44.8667 70.6739 44.3193 70.8395 43.7568 70.8395H43.7518Z" fill="#FFFF00"></path><path d="M44.028 66.8653C44.2389 66.8653 44.6307 66.9054 44.9119 67.1814C45.158 67.4223 45.2786 67.8089 45.2434 68.2456C45.2032 68.7425 44.9722 69.1892 44.6257 69.4351C44.3896 69.6008 44.0782 69.691 43.7518 69.691C43.2546 69.691 42.8176 69.4903 42.5816 69.149C42.2099 68.6069 42.4058 67.7737 42.8277 67.3421C43.119 67.0409 43.566 66.8653 44.028 66.8653ZM44.028 64.5664C42.9834 64.5664 41.9287 64.9729 41.1803 65.7409C40.0101 66.9455 39.6736 68.9683 40.6881 70.449C41.3913 71.4679 42.5715 71.9899 43.7518 71.9899C44.5302 71.9899 45.3087 71.7641 45.9515 71.3123C47.7998 70.0073 48.1162 67.0961 46.5191 65.5351C45.8461 64.8826 44.9471 64.5664 44.033 64.5664H44.028Z" fill="black"></path><path d="M29.6007 54.3759C29.1687 54.3759 28.7519 54.2754 28.3903 54.0847C27.7776 53.7534 27.3105 53.1561 27.0995 52.4434C26.9037 51.7809 26.969 51.1133 27.2753 50.5612C27.7022 49.7932 28.5711 49.3164 29.5454 49.3164C29.8267 49.3164 30.0979 49.3566 30.354 49.4419C31.037 49.6577 31.6297 50.1747 31.9812 50.8473C32.2926 51.4496 32.3629 52.1021 32.1771 52.6743C31.8607 53.6631 30.7759 54.3759 29.6007 54.3759Z" fill="#2795FF"></path><path d="M29.545 50.4668C29.7057 50.4668 29.8614 50.4919 30.007 50.537C30.3988 50.6625 30.7553 50.9737 30.9613 51.3752C31.0617 51.566 31.2073 51.9424 31.0868 52.3239C30.9261 52.8308 30.2732 53.2274 29.6052 53.2274C29.3642 53.2274 29.1331 53.1721 28.9423 53.0717C28.6058 52.891 28.3296 52.5347 28.209 52.1181C28.1488 51.9073 28.0734 51.4957 28.2844 51.1143C28.5505 50.6324 29.1331 50.4617 29.55 50.4617M29.545 48.168C28.2492 48.168 26.9384 48.8004 26.2704 50.005C25.271 51.8019 26.0997 54.1559 27.8474 55.0945C28.3949 55.3906 28.9975 55.5262 29.6002 55.5262C31.1923 55.5262 32.7793 54.5675 33.2715 53.0266C33.8842 51.1193 32.6237 48.956 30.7051 48.3487C30.3335 48.2282 29.9417 48.1729 29.545 48.1729V48.168Z" fill="black"></path><path d="M79.9565 46.4785C79.2635 46.4785 78.5704 46.1774 78.0481 45.6503C77.5659 45.1635 77.2997 44.5461 77.3048 43.9187C77.3148 42.6388 78.4147 41.665 79.4694 41.4592C79.6251 41.4291 79.7908 41.4141 79.9565 41.4141C81.2322 41.4141 82.4024 42.2975 82.6184 43.4268C82.749 44.0994 82.533 44.8322 82.0408 45.4345C81.5085 46.082 80.735 46.4685 79.9716 46.4735H79.9565V46.4785Z" fill="#2795FF"></path><path d="M79.9582 42.5634C80.6764 42.5634 81.3796 43.0603 81.49 43.6425C81.5553 43.9788 81.4298 44.3653 81.1535 44.7066C80.8371 45.0931 80.3901 45.324 79.9582 45.329C79.5765 45.329 79.1647 45.1483 78.8634 44.8421C78.7077 44.6865 78.4515 44.3602 78.4515 43.9286C78.4566 43.2711 79.0944 42.7039 79.687 42.5884C79.7724 42.5734 79.8628 42.5634 79.9532 42.5634M79.9582 40.2695C79.7222 40.2695 79.4861 40.2896 79.2551 40.3348C77.6028 40.656 76.1714 42.1216 76.1563 43.9135C76.1413 45.9614 77.9845 47.6278 79.9582 47.6278H79.9783C82.2434 47.6127 84.1669 45.4042 83.7501 43.2158C83.4186 41.4792 81.711 40.2695 79.9582 40.2695Z" fill="black"></path><path d="M69.0161 80.6844C67.7053 80.6844 66.515 79.6956 66.3643 78.4759C66.2086 77.206 67.1679 76.0968 68.1925 75.7555C68.4536 75.6702 68.7349 75.625 69.0262 75.625C70.1813 75.625 71.2511 76.3277 71.5725 77.2964C71.7884 77.9489 71.678 78.7018 71.2611 79.3643C70.8191 80.0771 70.1009 80.564 69.3476 80.6644C69.2371 80.6794 69.1266 80.6844 69.0161 80.6844Z" fill="#2795FF"></path><path d="M69.0269 76.7687C69.6899 76.7687 70.3127 77.1502 70.4834 77.6521C70.5939 77.9784 70.5186 78.3799 70.2875 78.7513C70.0214 79.1779 69.6145 79.4641 69.1927 79.5243C69.1374 79.5343 69.0772 79.5343 69.0219 79.5343C68.3791 79.5343 67.6006 79.0424 67.5102 78.3297C67.4298 77.6772 67.9873 77.0297 68.5599 76.839C68.7055 76.7888 68.8662 76.7637 69.032 76.7637M69.0269 74.4699C68.6252 74.4699 68.2183 74.5301 67.8266 74.6606C66.2295 75.1926 65.0041 76.839 65.225 78.6108C65.4561 80.4779 67.2139 81.8281 69.0169 81.8281C69.1776 81.8281 69.3434 81.8181 69.5041 81.793C71.744 81.4818 73.3662 79.0424 72.6631 76.9243C72.1609 75.4085 70.6039 74.4648 69.0269 74.4648V74.4699Z" fill="black"></path><path d="M40.5002 36.5554C40.5052 35.5867 40.6408 29.2724 44.046 27.8319C48.1743 26.0852 56.7022 31.6716 56.1799 38.0461C55.743 43.3715 49.0884 47.9892 44.8646 46.368C40.5454 44.7117 40.4952 37.1979 40.5002 36.5554Z" fill="#FF59E4" stroke="black" stroke-width="3.02661" stroke-miterlimit="10"></path><path d="M72.0425 36.5554C72.0374 35.5867 71.9018 29.2724 68.4967 27.8319C64.3684 26.0852 55.8405 31.6716 56.3628 38.0461C56.7997 43.3715 63.4543 47.9892 67.6781 46.368C71.9973 44.7117 72.0475 37.1979 72.0425 36.5554Z" fill="#FF59E4" stroke="black" stroke-width="3.02661" stroke-miterlimit="10"></path><path d="M52.3666 36.3626C52.4118 34.104 52.6278 33.4314 53.0296 32.9094C53.3108 32.543 53.6473 32.297 53.7126 32.2518C54.3705 31.7851 55.0737 31.6646 55.5658 31.6445H55.596C56.2539 31.6445 58.1172 31.765 58.5792 32.0109C59.202 32.3472 59.5284 32.8291 59.664 33.0348C59.9453 33.4565 60.2014 34.099 60.1814 37.236C60.1814 37.4619 60.1814 37.6827 60.1713 37.8785C60.1261 40.1371 59.9101 40.8147 59.5084 41.3317C59.2271 41.6981 58.8906 41.944 58.8253 41.9892C58.6596 42.1047 57.9263 42.4911 55.385 42.5664H55.3449C54.8527 42.5664 54.3756 42.451 53.9587 42.2301C53.3359 41.8938 53.0095 41.412 52.8739 41.2062C52.5926 40.7846 52.3365 40.1421 52.3566 37.0051C52.3566 36.7792 52.3566 36.5584 52.3666 36.3626Z" fill="#FF59E4" stroke="black" stroke-width="3.02661" stroke-miterlimit="10"></path><path d="M65.9476 61.0321C64.6218 61.0321 63.4114 59.9329 63.3612 58.6731C63.3109 57.4333 64.3305 56.4345 65.35 56.1836C65.5408 56.1384 65.7468 56.1133 65.9476 56.1133C67.153 56.1133 68.2479 56.9013 68.504 57.9403C68.6597 58.5878 68.4889 59.3055 68.0369 59.9179C67.5498 60.5754 66.8165 60.987 66.0782 61.0272C66.0381 61.0272 65.9929 61.0272 65.9527 61.0272L65.9476 61.0321Z" fill="#FF59E4"></path><path d="M65.9466 57.3339C66.5694 57.3339 67.1972 57.7455 67.3127 58.2273C67.383 58.5134 67.2826 58.8748 67.0515 59.186C66.7803 59.5474 66.3836 59.7833 66.0069 59.8084C65.9868 59.8084 65.9667 59.8084 65.9466 59.8084C65.349 59.8084 64.6057 59.2764 64.5805 58.6188C64.5554 58.0316 65.1079 57.4945 65.6403 57.3691C65.7357 57.344 65.8411 57.3339 65.9466 57.3339ZM65.9466 54.8945C65.6503 54.8945 65.349 54.9297 65.0577 55C63.4254 55.4015 62.0644 56.9374 62.1397 58.7242C62.2201 60.7068 64.0381 62.2528 65.9466 62.2528C66.0119 62.2528 66.0772 62.2528 66.1425 62.2478C68.4025 62.1223 70.2156 59.8234 69.6883 57.6551C69.2865 55.9988 67.6341 54.8945 65.9466 54.8945Z" fill="black"></path></svg>