<svg xmlns="http://www.w3.org/2000/svg" width="37" height="37" viewBox="0 0 37 37" fill="none"><rect x="0.898438" y="0.234375" width="36" height="36" rx="8" fill="#F2F1FA"></rect><path d="M21.9255 11.2376V11.2344H22.7695L23.0779 11.296C23.2835 11.336 23.4701 11.3884 23.6378 11.4532C23.8056 11.518 23.9679 11.5937 24.1248 11.6801C24.2817 11.7665 24.424 11.8546 24.5517 11.9443C24.6783 12.0329 24.7919 12.1269 24.8925 12.2263C24.992 12.3268 25.1473 12.3528 25.3583 12.3041C25.5693 12.2555 25.7965 12.188 26.04 12.1015C26.2835 12.0151 26.5242 11.9178 26.7623 11.8098C27.0003 11.7017 27.1453 11.6331 27.1973 11.6039C27.2481 11.5737 27.2752 11.5575 27.2784 11.5553L27.2817 11.5504L27.2979 11.5423L27.3141 11.5342L27.3304 11.5261L27.3466 11.518L27.3498 11.5132L27.3547 11.5099L27.3596 11.5067L27.3628 11.5018L27.3791 11.497L27.3953 11.4937L27.3921 11.518L27.3872 11.5423L27.3791 11.5666L27.3709 11.591L27.3628 11.6072L27.3547 11.6234L27.3466 11.6477C27.3412 11.6639 27.3358 11.6855 27.3304 11.7125C27.325 11.7395 27.2736 11.8476 27.1762 12.0367C27.0788 12.2258 26.957 12.4176 26.811 12.6121C26.6649 12.8066 26.534 12.9535 26.4182 13.053C26.3013 13.1535 26.224 13.2237 26.1861 13.2637C26.1482 13.3047 26.1022 13.3425 26.0481 13.3771L25.967 13.4306L25.9507 13.4387L25.9345 13.4468L25.9313 13.4517L25.9264 13.4549L25.9215 13.4582L25.9183 13.463L25.902 13.4711L25.8858 13.4792L25.8826 13.4841L25.8777 13.4873L25.8728 13.4906L25.8696 13.4954L25.8664 13.5003L25.8615 13.5036L25.8566 13.5068L25.8534 13.5117H25.9345L26.389 13.4144C26.6919 13.3496 26.9814 13.2712 27.2573 13.1794L27.6956 13.0335L27.7442 13.0173L27.7686 13.0092L27.7848 13.0011L27.8011 12.993L27.8173 12.9849L27.8335 12.9768L27.866 12.9719L27.8984 12.9687V13.0011L27.8903 13.0043L27.8822 13.0092L27.879 13.0141L27.8741 13.0173L27.8692 13.0205L27.866 13.0254L27.8627 13.0303L27.8579 13.0335L27.853 13.0367L27.8497 13.0416L27.8465 13.0465L27.8416 13.0497L27.8335 13.0659L27.8254 13.0821L27.8205 13.0854C27.8184 13.0886 27.7497 13.1805 27.6144 13.3609C27.4791 13.5425 27.4061 13.6343 27.3953 13.6365C27.3845 13.6397 27.3693 13.6559 27.3498 13.6851C27.3314 13.7153 27.2167 13.8358 27.0057 14.0465C26.7947 14.2572 26.5881 14.4447 26.3857 14.609C26.1823 14.7743 26.0795 14.9774 26.0774 15.2184C26.0741 15.4583 26.0617 15.7295 26.04 16.0321C26.0184 16.3346 25.9778 16.6615 25.9183 17.0127C25.8588 17.3639 25.7668 17.761 25.6424 18.204C25.5179 18.647 25.3664 19.0792 25.1879 19.5007C25.0093 19.9221 24.8227 20.3003 24.6279 20.6353C24.4332 20.9702 24.2546 21.2539 24.0923 21.4862C23.93 21.7185 23.765 21.9373 23.5973 22.1426C23.4296 22.3479 23.2175 22.5792 22.961 22.8364C22.7035 23.0924 22.5628 23.2329 22.539 23.2578C22.5141 23.2815 22.4081 23.3702 22.2209 23.5236C22.0348 23.6781 21.8346 23.8326 21.6203 23.9872C21.4072 24.1406 21.2113 24.2686 21.0328 24.3713C20.8543 24.4739 20.6389 24.5912 20.3868 24.723C20.1358 24.8559 19.8642 24.9791 19.572 25.0926C19.2799 25.206 18.9715 25.3114 18.6469 25.4086C18.3222 25.5059 18.0085 25.5815 17.7055 25.6355C17.4025 25.6896 17.0589 25.7355 16.6748 25.7733L16.0986 25.83V25.8382H15.0436V25.83L14.9057 25.8219C14.8137 25.8165 14.7379 25.8111 14.6784 25.8057C14.6189 25.8003 14.3944 25.7706 14.0048 25.7166C13.6153 25.6626 13.3096 25.6085 13.0878 25.5545C12.866 25.5005 12.5359 25.3978 12.0977 25.2465C11.6595 25.0953 11.2846 24.9424 10.9729 24.7878C10.6624 24.6344 10.4676 24.5372 10.3886 24.4961C10.3107 24.4561 10.2231 24.4064 10.1257 24.347L9.97959 24.2578L9.97636 24.253L9.97148 24.2497L9.96661 24.2465L9.96336 24.2416L9.94713 24.2335L9.9309 24.2254L9.92767 24.2206L9.92278 24.2173L9.91791 24.2141L9.91467 24.2092L9.91144 24.2043L9.90655 24.2011H9.89844V24.1687L9.91467 24.1719L9.9309 24.1768L10.0039 24.1849C10.0526 24.1903 10.1852 24.1984 10.4016 24.2092C10.618 24.22 10.8479 24.22 11.0914 24.2092C11.3349 24.1984 11.5838 24.1741 11.838 24.1363C12.0923 24.0985 12.3926 24.0336 12.7388 23.9418C13.0851 23.8499 13.4032 23.7408 13.6932 23.6144C13.9821 23.4869 14.1877 23.3918 14.31 23.3291C14.4312 23.2675 14.6162 23.153 14.8651 22.9855L15.2384 22.7342L15.2416 22.7294L15.2465 22.7261L15.2514 22.7229L15.2546 22.718L15.2579 22.7132L15.2627 22.7099L15.2676 22.7067L15.2708 22.7018L15.2871 22.697L15.3033 22.6937L15.3066 22.6775L15.3114 22.6613L15.3163 22.6581L15.3195 22.6532L15.1897 22.6451C15.1031 22.6397 15.0193 22.6343 14.9381 22.6289C14.857 22.6235 14.7298 22.5992 14.5567 22.5559C14.3836 22.5127 14.1969 22.4479 13.9967 22.3614C13.7965 22.275 13.6018 22.1723 13.4124 22.0535C13.2231 21.9346 13.0862 21.8357 13.0018 21.7569C12.9185 21.6791 12.8102 21.5689 12.6772 21.4262C12.5452 21.2825 12.4304 21.135 12.3331 20.9837C12.2357 20.8325 12.1426 20.6579 12.0539 20.4602L11.9192 20.1652L11.9111 20.1409L11.9029 20.1166L11.8981 20.1004L11.8948 20.0842L11.9192 20.0874L11.9435 20.0923L12.1221 20.1166C12.2411 20.1328 12.4278 20.1382 12.682 20.1328C12.9363 20.1274 13.1121 20.1166 13.2095 20.1004C13.3069 20.0842 13.3664 20.0734 13.3881 20.068L13.4205 20.0599L13.4611 20.0517L13.5017 20.0436L13.5049 20.0388L13.5098 20.0355L13.5147 20.0323L13.5179 20.0274L13.4855 20.0193L13.453 20.0112L13.4205 20.0031L13.3881 19.995L13.3556 19.9869C13.334 19.9815 13.2961 19.9707 13.242 19.9545C13.1879 19.9383 13.0418 19.8789 12.8038 19.7762C12.5657 19.6736 12.3764 19.5736 12.2357 19.4764C12.0947 19.3788 11.9602 19.2722 11.8332 19.157C11.7066 19.0403 11.5675 18.8901 11.416 18.7065C11.2645 18.5228 11.1293 18.3093 11.0102 18.0662C10.8912 17.8231 10.802 17.5908 10.7424 17.3693C10.6832 17.149 10.6441 16.9239 10.6256 16.6966L10.5964 16.3562L10.6126 16.3595L10.6288 16.3643L10.6451 16.3724L10.6613 16.3805L10.6775 16.3886L10.6937 16.3968L10.9453 16.5102C11.1131 16.5859 11.3213 16.6507 11.5702 16.7047C11.8191 16.7587 11.9679 16.7885 12.0166 16.7939L12.0896 16.802H12.2357L12.2324 16.7971L12.2276 16.7939L12.2227 16.7906L12.2194 16.7858L12.2162 16.7809L12.2113 16.7777L12.2065 16.7744L12.2032 16.7695L12.187 16.7614L12.1708 16.7533L12.1675 16.7485L12.1626 16.7452L12.1578 16.742L12.1545 16.7371L12.1383 16.729L12.1221 16.7209L12.1188 16.7161C12.1156 16.7139 12.0691 16.6793 11.9792 16.6123C11.8905 16.5442 11.7974 16.4562 11.7001 16.3481C11.6027 16.2401 11.5053 16.1266 11.4079 16.0078C11.3103 15.8886 11.2234 15.7612 11.1482 15.6269C11.0725 15.4918 10.9924 15.32 10.908 15.1114C10.8247 14.904 10.7614 14.6949 10.7181 14.4842C10.6748 14.2735 10.6505 14.0654 10.6451 13.8601C10.6397 13.6548 10.6451 13.4792 10.6613 13.3334C10.6775 13.1875 10.71 13.0227 10.7587 12.839C10.8074 12.6553 10.8777 12.4608 10.9697 12.2555L11.1076 11.9475L11.1158 11.9232L11.1239 11.8989L11.1288 11.8957L11.132 11.8908L11.1352 11.886L11.1401 11.8827L11.145 11.886L11.1482 11.8908L11.1515 11.8957L11.1563 11.8989L11.1612 11.9022L11.1644 11.907L11.1677 11.9119L11.1726 11.9151L11.1807 11.9313L11.1888 11.9475L11.1937 11.9508L11.1969 11.9556L11.416 12.1988C11.5621 12.3609 11.7352 12.5419 11.9354 12.7418C12.1356 12.9417 12.2465 13.0454 12.2681 13.053C12.2898 13.0616 12.3168 13.0864 12.3493 13.1275C12.3818 13.1675 12.49 13.2631 12.6739 13.4144C12.8579 13.5657 13.0986 13.7413 13.3962 13.9412C13.6938 14.1411 14.0238 14.3383 14.3863 14.5328C14.7488 14.7273 15.1383 14.9029 15.5549 15.0596C15.9715 15.2162 16.2636 15.3189 16.4313 15.3675C16.5991 15.4161 16.8858 15.4783 17.2916 15.5539C17.6974 15.6296 18.003 15.6782 18.2086 15.6998C18.4142 15.7214 18.5549 15.7338 18.6306 15.7371L18.7442 15.7403L18.741 15.716L18.7361 15.6917L18.7037 15.4891C18.682 15.354 18.6712 15.1649 18.6712 14.9218C18.6712 14.6787 18.6901 14.4545 18.728 14.2491C18.7659 14.0438 18.8227 13.8358 18.8984 13.6251C18.9742 13.4144 19.0483 13.2453 19.1208 13.1178C19.1944 12.9914 19.2907 12.8471 19.4097 12.685C19.5287 12.5229 19.6829 12.3555 19.8723 12.1826C20.0617 12.0097 20.2781 11.8557 20.5215 11.7206C20.765 11.5856 20.9895 11.4829 21.1951 11.4127C21.4007 11.3424 21.5738 11.2965 21.7145 11.2749C21.8552 11.2533 21.9255 11.2409 21.9255 11.2376Z" fill="#2D5BFF"></path></svg>