<svg xmlns="http://www.w3.org/2000/svg" width="19" height="15" viewBox="0 0 19 15" fill="none"><path d="M12.9255 0.00324168V0H13.7695L14.0779 0.0615919C14.2835 0.101578 14.4701 0.15398 14.6378 0.218814C14.8056 0.283647 14.9679 0.359292 15.1248 0.445731C15.2817 0.532171 15.424 0.620247 15.5517 0.709928C15.6783 0.79854 15.7919 0.892548 15.8925 0.991955C15.992 1.09245 16.1473 1.11838 16.3583 1.06975C16.5693 1.02113 16.7965 0.953589 17.04 0.86715C17.2835 0.78071 17.5242 0.68346 17.7623 0.575399C18.0003 0.467337 18.1453 0.398727 18.1973 0.369552C18.2481 0.339307 18.2752 0.323098 18.2784 0.320926L18.2817 0.316064L18.2979 0.30796L18.3141 0.299856L18.3304 0.291751L18.3466 0.283647L18.3498 0.278785L18.3547 0.275543L18.3596 0.272301L18.3628 0.267439L18.3791 0.262576L18.3953 0.259335L18.3921 0.283647L18.3872 0.30796L18.3791 0.332272L18.3709 0.356585L18.3628 0.372793L18.3547 0.389002L18.3466 0.413314C18.3412 0.429523 18.3358 0.451129 18.3304 0.478148C18.325 0.505167 18.2736 0.613213 18.1762 0.802316C18.0788 0.99142 17.957 1.18321 17.811 1.37771C17.6649 1.57222 17.534 1.71916 17.4182 1.81858C17.3013 1.91908 17.224 1.98931 17.1861 2.02929C17.1482 2.07035 17.1022 2.10816 17.0481 2.14275L16.967 2.19624L16.9507 2.20434L16.9345 2.21245L16.9313 2.21731L16.9264 2.22055L16.9215 2.22379L16.9183 2.22866L16.902 2.23676L16.8858 2.24486L16.8826 2.24973L16.8777 2.25297L16.8728 2.25621L16.8696 2.26107L16.8664 2.26594L16.8615 2.26918L16.8566 2.27242L16.8534 2.27728H16.9345L17.389 2.18003C17.6919 2.1152 17.9814 2.03686 18.2573 1.94501L18.6956 1.79913L18.7442 1.78292L18.7686 1.77482L18.7848 1.76672L18.8011 1.75861L18.8173 1.75051L18.8335 1.7424L18.866 1.73754L18.8984 1.7343V1.76672L18.8903 1.76996L18.8822 1.77482L18.879 1.77968L18.8741 1.78292L18.8692 1.78617L18.866 1.79103L18.8627 1.79589L18.8579 1.79913L18.853 1.80237L18.8497 1.80724L18.8465 1.8121L18.8416 1.81534L18.8335 1.83155L18.8254 1.84776L18.8205 1.851C18.8184 1.85424 18.7497 1.94608 18.6144 2.12654C18.4791 2.30808 18.4061 2.39991 18.3953 2.40209C18.3845 2.40533 18.3693 2.42154 18.3498 2.45071C18.3314 2.48096 18.2167 2.60145 18.0057 2.81216C17.7947 3.02287 17.5881 3.21033 17.3857 3.37459C17.1823 3.53992 17.0795 3.74306 17.0774 3.98403C17.0741 4.22391 17.0617 4.49514 17.04 4.79769C17.0184 5.10025 16.9778 5.42711 16.9183 5.7783C16.8588 6.12949 16.7668 6.52659 16.6424 6.96962C16.5179 7.41264 16.3664 7.84487 16.1879 8.26629C16.0093 8.68771 15.8227 9.0659 15.6279 9.40088C15.4332 9.73586 15.2546 10.0195 15.0923 10.2518C14.93 10.4841 14.765 10.7029 14.5973 10.9083C14.4296 11.1136 14.2175 11.3448 13.961 11.602C13.7035 11.8581 13.5628 11.9985 13.539 12.0234C13.5141 12.0472 13.4081 12.1358 13.2209 12.2892C13.0348 12.4437 12.8346 12.5982 12.6203 12.7528C12.4072 12.9062 12.2113 13.0343 12.0328 13.1369C11.8543 13.2396 11.6389 13.3568 11.3868 13.4886C11.1358 13.6215 10.8642 13.7447 10.572 13.8582C10.2799 13.9716 9.97148 14.077 9.64686 14.1743C9.32224 14.2715 9.00845 14.3471 8.70547 14.4012C8.40251 14.4552 8.05895 14.5011 7.67481 14.5389L7.09862 14.5957V14.6038H6.04361V14.5957L5.90565 14.5876C5.81369 14.5822 5.73794 14.5768 5.67842 14.5714C5.61892 14.566 5.39438 14.5362 5.00484 14.4822C4.6153 14.4282 4.30962 14.3742 4.0878 14.3201C3.86599 14.2661 3.53595 14.1634 3.09772 14.0122C2.65948 13.8609 2.28455 13.708 1.97292 13.5535C1.66237 13.4 1.4676 13.3028 1.38861 13.2617C1.3107 13.2217 1.22305 13.172 1.12567 13.1126L0.979592 13.0235L0.976362 13.0186L0.971476 13.0154L0.966607 13.0121L0.963361 13.0072L0.94713 12.9991L0.930899 12.991L0.927669 12.9862L0.922784 12.9829L0.917915 12.9797L0.914668 12.9748L0.911438 12.97L0.906553 12.9667H0.898438V12.9343L0.914668 12.9376L0.930899 12.9424L1.00394 12.9505C1.05263 12.9559 1.18519 12.964 1.40159 12.9748C1.61802 12.9856 1.84794 12.9856 2.0914 12.9748C2.33487 12.964 2.58375 12.9397 2.83802 12.9019C3.09231 12.8641 3.39258 12.7992 3.73883 12.7074C4.0851 12.6155 4.40323 12.5064 4.69322 12.38C4.98213 12.2525 5.18771 12.1574 5.31 12.0947C5.43117 12.0331 5.61621 11.9186 5.86507 11.7511L6.23838 11.4999L6.24163 11.495L6.2465 11.4918L6.25138 11.4885L6.25461 11.4837L6.25786 11.4788L6.26273 11.4756L6.26761 11.4723L6.27084 11.4674L6.28708 11.4626L6.30331 11.4593L6.30655 11.4431L6.31142 11.4269L6.31631 11.4237L6.31954 11.4188L6.18969 11.4107C6.10313 11.4053 6.01927 11.3999 5.93811 11.3945C5.85696 11.3891 5.72982 11.3648 5.55669 11.3216C5.38357 11.2783 5.19692 11.2135 4.99672 11.1271C4.79655 11.0406 4.60178 10.938 4.41241 10.8191C4.22307 10.7003 4.08617 10.6014 4.00177 10.5225C3.91846 10.4447 3.81025 10.3345 3.67716 10.1918C3.54515 10.0481 3.43045 9.90063 3.33306 9.74936C3.23568 9.59808 3.14263 9.42355 3.05391 9.22583L2.91918 8.93083L2.91106 8.90652L2.90295 8.88221L2.89808 8.866L2.89483 8.84979L2.91918 8.85303L2.94352 8.85789L3.12206 8.88221C3.2411 8.89842 3.42775 8.90381 3.68203 8.89842C3.93631 8.89302 4.11214 8.88221 4.20953 8.866C4.30691 8.84979 4.36643 8.83898 4.38807 8.83358L4.42053 8.82548L4.46111 8.81737L4.50168 8.80927L4.50493 8.80441L4.5098 8.80117L4.51468 8.79792L4.51791 8.79306L4.48545 8.78496L4.45299 8.77685L4.42053 8.76875L4.38807 8.76064L4.35561 8.75254C4.33397 8.74714 4.2961 8.73633 4.24199 8.72012C4.18789 8.70392 4.04182 8.64448 3.80376 8.54183C3.56572 8.43918 3.37635 8.33923 3.23568 8.24198C3.09466 8.14444 2.96019 8.03778 2.83315 7.92267C2.70655 7.80597 2.56752 7.65577 2.41602 7.47208C2.26454 7.28839 2.12929 7.07497 2.01025 6.83184C1.89123 6.58872 1.80196 6.3564 1.74244 6.13488C1.68316 5.91467 1.64405 5.68952 1.6256 5.46223L1.59636 5.12186L1.61259 5.1251L1.62883 5.12996L1.64506 5.13807L1.66129 5.14617L1.67752 5.15427L1.69375 5.16238L1.94533 5.27584C2.11306 5.35148 2.32135 5.41632 2.57021 5.47034C2.8191 5.52436 2.96787 5.55409 3.01656 5.55948L3.0896 5.56759H3.23568L3.23245 5.56273L3.22756 5.55948L3.22269 5.55624L3.21945 5.55138L3.21622 5.54652L3.21133 5.54328L3.20646 5.54003L3.20322 5.53517L3.18699 5.52707L3.17075 5.51896L3.16752 5.5141L3.16264 5.51086L3.15777 5.50762L3.15452 5.50275L3.13829 5.49465L3.12206 5.48655L3.11883 5.48168C3.11559 5.47951 3.06905 5.44494 2.97923 5.37795C2.8905 5.30987 2.79745 5.22181 2.70006 5.11375C2.60268 5.00569 2.50529 4.89223 2.40791 4.77338C2.31034 4.65425 2.22344 4.52679 2.14821 4.39248C2.07248 4.25741 1.9924 4.08559 1.908 3.87705C1.82468 3.66958 1.76138 3.4605 1.71809 3.24979C1.67482 3.03908 1.65048 2.83107 1.64506 2.62576C1.63965 2.42045 1.64506 2.24486 1.66129 2.09899C1.67752 1.95311 1.70998 1.78832 1.75867 1.60463C1.80736 1.42094 1.87771 1.22644 1.96967 1.02113L2.10763 0.71317L2.11575 0.688857L2.12387 0.664545L2.12875 0.661303L2.13198 0.656441L2.13523 0.651578L2.1401 0.648336L2.14498 0.651578L2.14821 0.656441L2.15146 0.661303L2.15633 0.664545L2.16121 0.667786L2.16444 0.672649L2.16769 0.677511L2.17256 0.680753L2.18067 0.696962L2.18879 0.71317L2.19367 0.716412L2.1969 0.721274L2.41602 0.9644C2.5621 1.12648 2.73523 1.30748 2.93541 1.50738C3.1356 1.70728 3.2465 1.81101 3.26814 1.81858C3.28979 1.82722 3.31683 1.85207 3.34929 1.89314C3.38176 1.93313 3.48997 2.02876 3.67391 2.18003C3.85787 2.3313 4.09862 2.50691 4.39618 2.7068C4.69376 2.9067 5.02378 3.10391 5.38626 3.29841C5.74876 3.49291 6.1383 3.6685 6.55488 3.82518C6.97148 3.98187 7.26364 4.08452 7.43135 4.13314C7.59908 4.18177 7.88581 4.2439 8.29158 4.31954C8.69736 4.39519 9.00305 4.44381 9.20863 4.46542C9.41422 4.48702 9.5549 4.49945 9.63063 4.5027L9.74424 4.50594L9.74101 4.48163L9.73613 4.45731L9.70367 4.25471C9.68203 4.11964 9.67121 3.93054 9.67121 3.68741C9.67121 3.44429 9.69015 3.22008 9.72801 3.01476C9.7659 2.80945 9.8227 2.60145 9.89844 2.39074C9.97419 2.18003 10.0483 2.01091 10.1208 1.88342C10.1944 1.75699 10.2907 1.61274 10.4097 1.45065C10.5287 1.28857 10.6829 1.12109 10.8723 0.948192C11.0617 0.775297 11.2781 0.621317 11.5215 0.486252C11.765 0.351188 11.9895 0.248524 12.1951 0.178292C12.4007 0.108061 12.5738 0.0621268 12.7145 0.040521C12.8552 0.0189152 12.9255 0.00648336 12.9255 0.00324168Z" fill="#2D5BFF"></path></svg>