<svg xmlns="http://www.w3.org/2000/svg" width="20" height="14" viewBox="0 0 20 14" fill="none"><path d="M10.8194 13.4134L6.92131 13.3406C5.6592 13.3152 4.39395 13.3659 3.15659 13.1029C1.27428 12.7099 1.14093 10.7831 1.0014 9.16693C0.809132 6.89476 0.883564 4.58135 1.2464 2.32815C1.45123 1.06387 2.25732 0.309459 3.50391 0.227365C7.71208 -0.0705651 11.9482 -0.0352572 16.1471 0.103738C16.5905 0.11648 17.037 0.186124 17.4743 0.265397C19.6327 0.652035 19.6853 2.8355 19.8253 4.67356C19.9648 6.53059 19.9059 8.39716 19.6392 10.2415C19.4252 11.7686 19.0158 13.0493 17.2882 13.1729C15.1236 13.3346 13.0086 13.4647 10.8379 13.4233C10.838 13.4134 10.8256 13.4134 10.8194 13.4134ZM8.52769 9.54725C10.1589 8.59014 11.759 7.64898 13.3809 6.69828C11.7466 5.74117 10.1496 4.80001 8.52769 3.84932V9.54725Z" fill="#2D5BFF"></path></svg>