<svg xmlns="http://www.w3.org/2000/svg" width="37" height="37" viewBox="0 0 37 37" fill="none"><rect x="0.898438" y="0.234375" width="36" height="36" rx="8" fill="#F2F1FA"></rect><path d="M19.8194 24.6478L15.9213 24.575C14.6592 24.5496 13.394 24.6003 12.1566 24.3372C10.2743 23.9443 10.1409 22.0175 10.0014 20.4013C9.80913 18.1291 9.88356 15.8157 10.2464 13.5625C10.4512 12.2982 11.2573 11.5438 12.5039 11.4617C16.7121 11.1638 20.9482 11.1991 25.1471 11.3381C25.5905 11.3509 26.037 11.4205 26.4743 11.4998C28.6327 11.8864 28.6853 14.0699 28.8253 15.9079C28.9648 17.765 28.9059 19.6315 28.6392 21.4759C28.4252 23.003 28.0158 24.2836 26.2882 24.4073C24.1236 24.5689 22.0086 24.6991 19.8379 24.6576C19.838 24.6478 19.8256 24.6478 19.8194 24.6478ZM17.5277 20.7816C19.1589 19.8245 20.759 18.8834 22.3809 17.9327C20.7466 16.9755 19.1496 16.0344 17.5277 15.0837V20.7816Z" fill="#2D5BFF"></path></svg>