<svg xmlns="http://www.w3.org/2000/svg" width="25" height="25" viewBox="0 0 25 25" fill="none"><path d="M22.9844 7.64062V17.6406C22.9844 18.3037 22.721 18.9396 22.2521 19.4084C21.7833 19.8772 21.1474 20.1406 20.4844 20.1406H5.48437C4.82133 20.1406 4.18545 19.8772 3.71661 19.4084C3.24777 18.9396 2.98438 18.3037 2.98438 17.6406V7.64062" stroke="#747B94" stroke-width="2" stroke-linecap="round" stroke-linejoin="round"></path><path d="M22.9844 7.64063C22.9844 6.97758 22.721 6.3417 22.2521 5.87286C21.7833 5.40402 21.1474 5.14062 20.4844 5.14062H5.48437C4.82133 5.14063 4.18545 5.40402 3.71661 5.87286C3.24777 6.3417 2.98438 6.97758 2.98438 7.64063L11.6594 13.0573C12.0567 13.3056 12.5158 13.4373 12.9844 13.4373C13.4529 13.4373 13.912 13.3056 14.3094 13.0573L22.9844 7.64063Z" stroke="#747B94" stroke-width="2" stroke-linecap="round" stroke-linejoin="round"></path></svg>